<svg version="1.1" xmlns="http://www.w3.org/2000/svg" xmlns:xlink="http://www.w3.org/1999/xlink" width="50.000000pt" height="50.000000pt" viewBox="0,0,256,256"><g fill="#ffffff" fill-rule="nonzero" stroke="none" stroke-width="1" stroke-linecap="butt" stroke-linejoin="miter" stroke-miterlimit="10" stroke-dasharray="" stroke-dashoffset="0" font-family="none" font-weight="none" font-size="none" text-anchor="none" style="mix-blend-mode: normal"><g transform="translate(0,0.384) scale(5.12,5.12)"><g transform="translate(0,50) scale(0.1,-0.1)"><path d="M100,452c-56,-28 -70,-68 -70,-202c0,-192 28,-220 220,-220c192,0 220,28 220,220c0,134 -14,174 -70,202c-50,26 -250,26 -300,0zM390,435c49,-25 60,-60 60,-185c0,-179 -21,-200 -200,-200c-179,0 -200,21 -200,200c0,179 20,199 198,200c82,0 121,-4 142,-15z"></path><path d="M354,379c-10,-17 13,-36 27,-22c12,12 4,33 -11,33c-5,0 -12,-5 -16,-11z"></path><path d="M198,344c-30,-16 -58,-61 -58,-94c0,-53 57,-110 110,-110c34,0 78,28 95,60c19,37 19,63 0,100c-28,54 -94,74 -147,44zM311,311c39,-40 39,-82 0,-122c-20,-20 -39,-29 -61,-29c-43,0 -90,47 -90,90c0,43 47,90 90,90c22,0 41,-9 61,-29z"></path></g></g></g></svg>