<svg width="25" height="16" viewBox="0 0 25 16" fill="none" xmlns="http://www.w3.org/2000/svg">
<g clip-path="url(#clip0_22_387)">
<path d="M1.47832 6.96356C1.08461 7.35087 1.07942 7.98402 1.46673 8.37773L7.77829 14.7937C8.1656 15.1874 8.79874 15.1926 9.19245 14.8053C9.58617 14.418 9.59136 13.7848 9.20405 13.3911L3.59377 7.68804L9.29683 2.07777C9.69054 1.69046 9.69573 1.05732 9.30843 0.663602C8.92112 0.269889 8.28797 0.264696 7.89426 0.652005L1.47832 6.96356ZM24.1789 7.85686L24.1871 6.85689L2.18781 6.67648L2.17961 7.67645L2.17141 8.67641L24.1707 8.85682L24.1789 7.85686Z" fill="#5C5C5C"/>
</g>
<defs>
<clipPath id="clip0_22_387">
<rect width="24" height="15" fill="white" transform="translate(24.359 14.9955) rotate(178.601)"/>
</clipPath>
</defs>
</svg>
