<svg version="1.1" xmlns="http://www.w3.org/2000/svg" xmlns:xlink="http://www.w3.org/1999/xlink" width="50.000000pt" height="50.000000pt" viewBox="0,0,256,256"><g fill="#ffffff" fill-rule="nonzero" stroke="none" stroke-width="1" stroke-linecap="butt" stroke-linejoin="miter" stroke-miterlimit="10" stroke-dasharray="" stroke-dashoffset="0" font-family="none" font-weight="none" font-size="none" text-anchor="none" style="mix-blend-mode: normal"><g transform="translate(0.11532,-0.11153) scale(5.12,5.12)"><g transform="translate(0,50) scale(0.1,-0.1)"><path d="M155,456c-60,-28 -87,-56 -114,-116c-25,-54 -26,-104 -6,-163c13,-39 13,-50 -1,-97c-8,-28 -13,-54 -11,-57c3,-2 30,2 61,10c47,13 61,13 93,1c57,-20 112,-17 168,10c60,28 87,56 114,116c27,60 26,123 -3,185c-28,60 -56,87 -116,114c-60,27 -123,26 -185,-3zM335,441c22,-10 55,-34 72,-54c142,-162 -26,-405 -230,-333c-28,10 -47,11 -78,4c-22,-6 -42,-8 -45,-5c-3,3 -1,22 5,43c8,30 7,48 -4,79c-63,177 112,343 280,266z"></path><path d="M134,345c-26,-39 -11,-86 44,-143c75,-76 168,-94 194,-36c11,23 9,29 -11,45c-25,21 -56,25 -66,9c-11,-17 -38,-11 -66,16c-23,22 -26,30 -17,49c7,17 6,30 -6,54c-20,38 -49,40 -72,6zM190,324c8,-19 7,-31 -1,-41c-15,-18 14,-59 60,-87c30,-17 33,-17 51,-1c15,13 22,14 40,5c26,-14 21,-32 -12,-44c-77,-27 -228,130 -176,182c18,18 27,15 38,-14z"></path></g></g></g></svg>