<svg version="1.1" xmlns="http://www.w3.org/2000/svg" xmlns:xlink="http://www.w3.org/1999/xlink" width="50.000000pt" height="50.000000pt" viewBox="0,0,256,256"><g fill="#ffffff" fill-rule="nonzero" stroke="none" stroke-width="1" stroke-linecap="butt" stroke-linejoin="miter" stroke-miterlimit="10" stroke-dasharray="" stroke-dashoffset="0" font-family="none" font-weight="none" font-size="none" text-anchor="none" style="mix-blend-mode: normal"><g transform="translate(0.39099,-4.77808) scale(5.12,5.12)"><g transform="translate(0,50) scale(0.1,-0.1)"><path d="M243,357c-106,-45 -198,-88 -204,-94c-18,-18 5,-40 52,-55c48,-14 53,-19 73,-91c17,-58 33,-70 56,-41c31,37 48,37 94,-1c50,-41 73,-44 86,-12c15,36 72,356 65,367c-3,5 -12,10 -18,10c-7,-1 -99,-38 -204,-83zM447,398c-3,-13 -17,-90 -33,-173c-15,-82 -31,-154 -35,-159c-7,-8 -138,81 -139,95c0,4 37,50 81,103c45,53 79,99 75,103c-3,3 -60,-30 -127,-74l-121,-81l-49,16c-27,9 -46,19 -42,23c9,9 373,167 387,168c4,1 6,-9 3,-21zM309,283c-8,-10 -32,-40 -55,-68c-23,-27 -46,-66 -51,-85l-9,-35l-17,50c-14,39 -15,51 -5,57c7,4 42,27 78,52c74,51 78,53 59,29zM244,131c3,-5 -1,-14 -9,-21c-13,-10 -15,-9 -15,9c0,21 14,28 24,12z"></path></g></g></g></svg>