<svg version="1.1" xmlns="http://www.w3.org/2000/svg" xmlns:xlink="http://www.w3.org/1999/xlink" width="50.000000pt" height="50.000000pt" viewBox="0,0,256,256"><g fill="#ffffff" fill-rule="nonzero" stroke="none" stroke-width="1" stroke-linecap="butt" stroke-linejoin="miter" stroke-miterlimit="10" stroke-dasharray="" stroke-dashoffset="0" font-family="none" font-weight="none" font-size="none" text-anchor="none" style="mix-blend-mode: normal"><g transform="translate(-0.58666,0) scale(5.12,5.12)"><g transform="translate(0,50) scale(0.1,-0.1)"><path d="M155,456c-60,-28 -87,-56 -114,-116c-36,-79 -19,-183 42,-249c33,-36 115,-71 167,-71c52,0 134,35 167,71c34,37 63,110 63,159c0,52 -35,134 -71,167c-37,34 -110,63 -159,63c-27,0 -65,-10 -95,-24zM335,441c128,-58 164,-223 72,-328c-101,-115 -283,-88 -348,52c-79,171 104,354 276,276z"></path><path d="M95,310c-10,-17 49,-113 85,-137c38,-26 78,-30 86,-8c5,13 8,13 27,0c25,-17 83,-20 92,-4c4,6 -2,21 -14,33c-26,28 -26,31 0,67c27,39 19,59 -25,59c-31,0 -37,-5 -53,-37l-18,-38l-5,35c-5,38 -22,47 -67,35c-20,-5 -23,-9 -13,-20c7,-8 10,-20 8,-27c-3,-7 -12,1 -22,20c-13,25 -23,32 -46,32c-16,0 -32,-5 -35,-10zM165,267c27,-42 49,-42 53,1c2,19 9,32 17,32c8,0 15,-13 17,-32c4,-43 26,-43 53,-1c13,21 28,32 44,33c22,0 23,-1 7,-22c-37,-53 -38,-56 -9,-83l28,-25h-28c-15,0 -39,8 -54,17c-24,16 -26,16 -38,0c-15,-21 -34,-22 -63,-1c-24,16 -72,86 -72,104c0,21 26,8 45,-23z"></path></g></g></g></svg>