<svg version="1.1" xmlns="http://www.w3.org/2000/svg" xmlns:xlink="http://www.w3.org/1999/xlink" width="50.000000pt" height="50.000000pt" viewBox="0,0,256,256"><g fill="#ffffff" fill-rule="nonzero" stroke="none" stroke-width="1" stroke-linecap="butt" stroke-linejoin="miter" stroke-miterlimit="10" stroke-dasharray="" stroke-dashoffset="0" font-family="none" font-weight="none" font-size="none" text-anchor="none" style="mix-blend-mode: normal"><g transform="scale(5.12,5.12)"><g transform="translate(0,50) scale(0.1,-0.1)"><path d="M65,439c-20,-18 -35,-40 -35,-53c1,-107 249,-355 356,-356c24,0 84,61 84,85c0,8 -25,31 -55,52c-55,36 -56,36 -89,20l-33,-15l-61,61l-60,62l16,32c15,32 15,33 -21,88c-21,30 -44,55 -52,55c-8,0 -30,-14 -50,-31zM151,404c29,-42 30,-48 18,-72c-7,-15 -15,-30 -17,-34c-4,-9 105,-126 130,-139c11,-6 26,-4 46,8c28,16 30,16 75,-16c26,-17 47,-35 47,-40c0,-4 -13,-20 -29,-35c-34,-32 -59,-31 -121,7c-51,31 -176,153 -209,206c-46,71 -49,97 -15,132c15,16 31,29 35,29c5,0 22,-21 40,-46z"></path></g></g></g></svg>